<svg width="61" height="59" viewBox="0 0 61 59" fill="none" xmlns="http://www.w3.org/2000/svg">
<path d="M60.5464 22.9652C60.46 22.5023 59.7935 21.6012 59.1948 21.6012H45.4251V2.15948C45.4251 1.83237 45.2276 1.50525 44.8511 1.22134C44.4993 0.955944 43.9315 0.696721 43.4501 0.789301L2.35079 0.88188L2.19031 0.906568C1.52374 1.12876 1.26456 1.72127 1.07322 2.15331L0.999163 2.32612L0.900391 56.4791L0.912747 56.6581C0.943607 57.2938 0.999179 58.2566 2.01756 58.6023L2.09779 58.6269L58.806 58.7504C58.8677 58.7504 58.9232 58.7504 58.9725 58.7504C59.8613 58.7504 60.0897 58.3307 60.3181 57.695L60.3674 57.5592L60.5588 22.9961V22.9467L60.5464 22.9652ZM43.3081 25.0822H57.0778L56.8926 55.2756H4.56659V4.46163H41.9441V23.7182C41.9441 24.1873 42.8329 25.0761 43.3019 25.0761L43.3081 25.0822Z" fill="#849266"/>
<path d="M44.7648 40.2158C30.7914 44.2461 19.1634 29.7049 24.8292 16.4969C25.5452 14.8305 28.8534 11.2199 25.0021 11.7568C18.9844 12.5962 13.1766 19.1447 11.5225 24.7612C6.68365 41.2219 22.6629 55.2878 38.5249 49.3072C41.7282 48.0974 47.7088 43.6783 48.6037 40.2776C49.2765 37.7038 45.8572 39.9011 44.7586 40.222L44.7648 40.2158Z" fill="#849266"/>
</svg>
